<svg id="Layer_1" data-name="Layer 1" xmlns="http://www.w3.org/2000/svg" viewBox="0 0 480 480"><defs><style>.cls-1{fill:#fff;}</style></defs><title>blueprint</title><g id="haUcPo.tif"><path class="cls-1" d="M479.17,248.18c-.57,3.89-1,7.82-1.73,11.67-1.92,9.86-4.09,19.68-6,29.55-.52,2.79-2.61,2.75-4.41,3.14-18.09,3.86-36.17,7.76-54.32,11.34-3.87.76-5.89,2.36-7.35,6.07A164.19,164.19,0,0,1,382.48,350c-1.69,2.2-2.12,4-1.09,6.73,6.59,17.45,12.95,35,19.47,52.46.91,2.44,1,4.17-1.08,6.26-22.36,22.84-48.16,40-79.08,49.1-3.42,1-5.33.47-7.61-2.18-12.11-14.07-24.44-27.95-36.63-41.95-1.5-1.72-2.94-2.07-5.21-1.67a180.34,180.34,0,0,1-61.89.6,5.07,5.07,0,0,0-5.43,2.08c-11.53,14.23-23.21,28.33-34.72,42.57-1.77,2.19-3.33,2.55-6,1.79-32.39-9.18-60-26.22-83.76-49.95-1.57-1.57-1.36-2.85-.68-4.61,6.53-16.94,13-33.92,19.54-50.84a5.26,5.26,0,0,0-.91-6,174.65,174.65,0,0,1-28.07-48.63,5.7,5.7,0,0,0-5-4.11c-17.74-3-35.43-6.28-53.18-9.27-2.7-.46-3.91-1.57-4.29-4.11C5.08,276.5,2.75,264.79,1.58,253c-2-20.46.24-40.67,5.09-60.64.76-3.14,2.09-4.49,5.22-5,17.25-2.95,34.45-6.17,51.71-9.07,3.67-.62,5.74-1.95,7.19-5.64A166.14,166.14,0,0,1,97.2,127.72a6.58,6.58,0,0,0,1.27-7.06c-5.57-17-11-34.06-16.45-51.1-.6-1.87-1.4-3.53.52-5.39,15.48-15,31.85-28.79,51.71-37.61,10-4.43,20.47-7.66,30.67-11.58,2.34-.9,3.63-.16,5.1,1.56,12.07,14.1,24.25,28.11,36.28,42.24,2,2.36,3.76,3.42,7.21,2.92a184.72,184.72,0,0,1,50.93,0,6,6,0,0,0,4.34-1.84q20.66-21.61,41.05-43.47c2.34-2.51,4.32-3.08,7.72-2.07,32.61,9.77,60.27,27.56,84.23,51.45,1.75,1.74,1.66,3.27.82,5.33-7.24,17.74-14.35,35.52-21.64,53.24-1.09,2.65-.77,4.46,1,6.74a171,171,0,0,1,23.59,41,6,6,0,0,0,5,4.22c18.17,3.52,36.28,7.32,54.46,10.81,3.72.71,5.84,2,6.51,6.06,2.07,12.6,4.51,25.14,6.84,37.69a16.11,16.11,0,0,0,.85,2.41ZM74.32,240.64c0,90.55,73.34,164.16,163.74,164.09C327.53,404.67,402,333.23,402,240.9,402,149.74,329.37,77,238.13,77.05,145.13,77.09,74.54,152.13,74.32,240.64Z"/><path class="cls-1" d="M91.18,240.74C90.21,162.43,155,92.64,240.26,93.69a147,147,0,0,1,145.1,149c-.86,82.06-68.72,146-148.33,145.39C156.75,387.48,90.22,321.14,91.18,240.74Zm79.61,51c-.07,28.53,24.55,46.13,48.19,37.16,15.11-5.74,29.79-5.46,44.73-.14a36.16,36.16,0,0,0,17.54,2.08c17-2.41,29.43-14.78,31.25-32.11,1.59-15.14-6.87-30.9-22.61-36.6-8.06-2.92-13.66-7.85-18.26-15-7.82-12.11-19.65-18.32-33.79-16a84.48,84.48,0,0,0-53.47,31.42C176.84,272,171.26,282.53,170.79,291.74Zm143.59-87.36c-.28-2.37-.47-5.22-1-8a60,60,0,0,0-15.34-30.54c-4.95-5.34-10.19-4.91-14.28,1.11-2.2,3.24-4.34,6.86-5.18,10.61a237.05,237.05,0,0,0-3.94,24.53c-1,8.32.43,16.33,5.24,23.44,4.68,6.92,11.67,8.79,19.19,5.11C309.78,225.38,314,216.29,314.39,204.38Zm-92.07-21a37.26,37.26,0,0,0,6.91,22.9c8,11,20.27,11,28.22,0,4.51-6.23,6.39-13.32,6.82-21,.58-10.14-1.27-19.55-7.54-27.74-7.23-9.44-19-9.58-26.47-.35C224.34,164.53,222.28,173.1,222.32,183.36Zm-6.8,13.48a32.5,32.5,0,0,0-6.18-20.91c-8-11-21.29-11.27-29.65-.64-9.17,11.66-9,32.12.32,43.61,8,9.79,20.19,10,28.26.3C213.58,212.82,215.8,205.28,215.52,196.84Zm-79.16,44.9a28.62,28.62,0,0,0,3.78,16.12c4,6.64,10.12,10.11,17.75,9.65s12.24-5.7,14.42-12.76c3.9-12.63,2.38-24.66-5.27-35.55-7.12-10.14-17.84-9.8-24.65.56C138,226.42,136.48,233.89,136.36,241.74ZM344.08,240c-.76-7.61-3-14.11-6.94-18-6-6-13.12-6-18.91.15s-7.82,13.64-9.21,21.59a24,24,0,0,0,4.06,18c3.21,4.83,8.26,6.25,13.72,5.85,5.86-.43,10.74-3.07,12.63-8.88C341.4,252.62,342.56,246.27,344.08,240Z"/></g></svg>